<?xml version="1.0" standalone="no"?><!DOCTYPE svg PUBLIC "-//W3C//DTD SVG 1.1//EN" "http://www.w3.org/Graphics/SVG/1.1/DTD/svg11.dtd"><svg t="1689735241306" class="icon" viewBox="0 0 1024 1024" version="1.1" xmlns="http://www.w3.org/2000/svg" p-id="1290" xmlns:xlink="http://www.w3.org/1999/xlink" width="200" height="200"><path d="M863 255.58H668.56c40.45-29.41 49.9-90.51 12.32-130.73-17.75-19-40.87-27.85-63.7-27.85-36.4 0-72.08 22.48-84.16 62.14l-21.09 69.22-20.89-69.06C479.01 119.56 443.28 97 406.82 97c-22.78 0-45.84 8.8-63.59 27.72-37.7 40.19-28.3 101.4 12.2 130.85H161c-35.35 0-64 28.65-64 64v134.97c0 35.35 28.65 64 64 64h702c35.35 0 64-28.65 64-64V319.58c0-35.35-28.65-64-64-64z m-276.42-80.12c5.05-16.58 19.64-22.46 30.59-22.46 6.1 0 15 1.75 22.79 10.08 11.25 12.04 8.75 25.56 7.15 30.82-1.6 5.25-7.06 17.87-23.11 21.6l-53.38 12.38 15.96-52.42z m-202.5-12.42c7.78-8.29 16.66-10.04 22.74-10.04 10.98 0 25.58 5.9 30.61 22.52l15.87 52.44-53.35-12.48c-16.05-3.76-21.48-16.39-23.07-21.64s-4.08-18.78 7.2-30.8zM863 422.55c0 17.67-14.33 32-32 32H193c-17.67 0-32-14.33-32-32v-70.97c0-17.67 14.33-32 32-32h638c17.67 0 32 14.33 32 32v70.97z" p-id="1291"></path><path d="M192 455v408c0 35.35 28.65 64 64 64h512c35.35 0 64-28.65 64-64V455H192z m576 376c0 17.67-14.33 32-32 32H288c-17.67 0-32-14.33-32-32V519h512v312z" p-id="1292"></path><path d="M480 320.22h64V863h-64z" p-id="1293"></path></svg>